<?xml version="1.0" standalone="no"?><!DOCTYPE svg PUBLIC "-//W3C//DTD SVG 1.1//EN" "http://www.w3.org/Graphics/SVG/1.1/DTD/svg11.dtd"><svg t="1772457856332" class="icon" viewBox="0 0 11826 1024" version="1.1" xmlns="http://www.w3.org/2000/svg" p-id="6463" xmlns:xlink="http://www.w3.org/1999/xlink" width="2309.765625" height="200"><path d="M1127.12327 0.023607 1004.547699 0.023607 71.888469 588.674708 71.888469 0.023607 0 0.023607 0 1023.999983 71.888469 1023.999983 71.888469 665.680341 369.085777 475.364393 1047.777687 1023.999983 1154.64723 1023.999983 431.248089 439.733334Z" fill="#09112C" p-id="6464"></path><path d="M2366.646874 523.321554 3201.654547 523.321554 3201.654547 459.457459 2366.646874 459.457459 2366.646874 62.185919 3254.267972 62.185919 3254.267972 0.023607 2296.542913 0.023607 2296.542913 1023.999983 3262.859607 1023.999983 3262.859607 959.958619 2366.646874 959.958619Z" fill="#09112C" p-id="6465"></path><path d="M5004.219797 0.023607l-580.94581 0 0 1023.976376 71.983013 0 0-449.494973 490.33774 0c132.124459 0 239.880346-24.628566 320.277725-73.164806 82.61915-49.765304 124.513712-122.055583 124.513712-214.861788C5430.397995 96.398827 5287.011048 0.023607 5004.219797 0.023607zM5360.447666 286.466598c0 68.34309-30.702983 121.263781-93.881637 161.787464-63.816823 41.256394-152.084943 62.174131-262.346231 62.174131l-508.939162 0 0-448.242273 508.95098 0C5243.934693 62.185919 5360.447666 135.563448 5360.447666 286.466598z" fill="#09112C" p-id="6466"></path><path d="M6623.630766 0.023607 6553.845889 0.023607 6553.845889 1023.999983 7445.437811 1023.999983 7445.437811 959.958619 6623.630766 959.958619Z" fill="#09112C" p-id="6467"></path><path d="M8672.481681 523.321554 9507.690258 523.321554 9507.690258 459.457459 8672.481681 459.457459 8672.481681 62.185919 9560.055507 62.185919 9560.055507 0.023607 8602.531352 0.023607 8602.531352 1023.999983 9568.989862 1023.999983 9568.989862 959.958619 8672.481681 959.958619Z" fill="#09112C" p-id="6468"></path><path d="M11812.328453 1002.916795c-27.819408-44.64814-41.941834-112.258519-41.941834-200.916631 0-76.16656-13.956976-135.43348-41.33912-175.886254-31.695689-49.505309-85.053643-83.860032-159.022068-102.555998 66.310406-22.454067 118.793834-56.288801 156.516667-101.066939 38.266458-46.834457 56.986059-98.301543 55.603361-153.101285-3.320838-92.558029-40.59459-161.669284-110.734006-205.407444-68.213093-42.450005-174.31447-63.982274-315.373284-63.982274l-582.529413 0 0 1023.976376 71.687564 0 0-464.444655 503.845634 0c145.147818 0 243.862989 21.721356 293.510113 64.679532 38.408273 32.298403 57.872404 90.418984 57.872404 172.707231 0 90.265351 10.896132 161.669284 33.338381 218.33626l3.439018 8.721632 88.256302 0L11812.328453 1002.916795zM11712.419672 270.299669c2.209953 73.294803-31.660235 128.709077-103.714155 169.51639-65.329518 38.219186-153.786725 57.588774-262.92531 57.588774l-500.619339 0 0-435.218914 519.433484 0C11594.24037 62.185919 11707.999766 130.280833 11712.419672 270.299669z" fill="#09112C" p-id="6469"></path></svg>